<svg width="60" height="60" viewBox="0 0 60 60" fill="none" xmlns="http://www.w3.org/2000/svg">
<path d="M41.3996 29.5H43.5C44.6046 29.5 45.5 28.6046 45.5 27.5V19.5C45.5 18.3954 44.6046 17.5 43.5 17.5H40.3994C39.5085 17.5 39.0624 16.4229 39.6923 15.7929L41.8848 13.6005C42.6658 12.8194 42.6658 11.5531 41.8848 10.7721L36.2279 5.11515C35.4469 4.3341 34.1806 4.3341 33.3995 5.11515L31.2071 7.30754C30.5771 7.93751 29.5 7.49134 29.5 6.60043V3.5C29.5 2.39543 28.6046 1.5 27.5 1.5H19.5C18.3954 1.5 17.5 2.39543 17.5 3.5V6.60041C17.5 7.49131 16.4228 7.93748 15.7929 7.3075L13.6006 5.11517C12.8195 4.33411 11.5532 4.33411 10.7721 5.11517L5.11529 10.7721C4.33425 11.5531 4.33425 12.8194 5.1153 13.6005L7.3077 15.7929C7.93766 16.4229 7.4915 17.5 6.60059 17.5H3.5C2.39543 17.5 1.5 18.3954 1.5 19.5V27.5C1.5 28.6046 2.39543 29.5 3.5 29.5H6.60051C7.49141 29.5 7.93758 30.5771 7.30761 31.2071L5.11524 33.3995C4.33419 34.1805 4.3342 35.4469 5.11526 36.2279L10.7721 41.8846C11.5531 42.6657 12.8195 42.6657 13.6005 41.8846L15.7929 39.6922C16.4229 39.0623 17.5 39.5084 17.5 40.3993V43.5C17.5 44.6046 18.3954 45.5 19.5 45.5H27.5C28.6046 45.5 29.5 44.6046 29.5 43.5V41.3995" stroke="#A0A9B7" stroke-linecap="round"/>
<path d="M18.9878 26.766L12.9774 20.7555C12.4728 20.251 11.6476 20.438 11.5443 21.1441C11.1718 23.6908 11.7128 27.9763 15.4523 31.7157C20.0485 36.3119 26.4124 34.1906 28.8873 36.6654L48.3383 56.1164C50.4862 58.2643 53.963 58.2588 56.1109 56.1109C58.2588 53.963 58.2643 50.4861 56.1164 48.3382L36.6655 28.8873C34.1906 26.4124 36.3119 20.0484 31.7157 15.4522C28.6102 12.3467 24.2133 11.8237 21.688 11.8112C20.8639 11.8071 20.5264 12.7482 21.1091 13.3309L26.766 18.9878C27.547 19.7688 27.547 21.0352 26.766 21.8162L21.8162 26.766C21.0352 27.547 19.7689 27.547 18.9878 26.766Z" stroke="#A0A9B7" stroke-linecap="round" stroke-linejoin="round"/>
</svg>
