<svg width="60" height="60" viewBox="0 0 60 60" fill="none" xmlns="http://www.w3.org/2000/svg">
<path d="M5.49994 30.4999H10.4999V54.4999H5.49994L5.49994 30.4999Z" stroke="#A0A9B7" stroke-linejoin="round"/>
<path d="M10.4999 35.4999L14.4999 35.4999V49.4999H10.4999L10.4999 35.4999Z" stroke="#A0A9B7" stroke-linejoin="round"/>
<path d="M21.4999 39.4999L14.4999 39.4999L14.4999 45.4999H21.4999" stroke="#A0A9B7" stroke-linejoin="round"/>
<path d="M25.4999 30L24 37.5M29.9998 31.5L28.4998 38.5" stroke="#A0A9B7" stroke-linecap="round"/>
<path d="M30.4999 42.4999C30.4999 45.2613 28.2614 47.4999 25.4999 47.4999C22.7385 47.4999 20.4999 45.2613 20.4999 42.4999C20.4999 39.7385 22.7385 37.4999 25.4999 37.4999C28.2614 37.4999 30.4999 39.7385 30.4999 42.4999Z" stroke="#A0A9B7"/>
<path d="M24.4838 24.2096L24.2249 25.1755C23.5102 27.8429 25.0931 30.5845 27.7605 31.2992C30.4278 32.014 33.1695 30.431 33.8842 27.7637L34.143 26.7978" stroke="#A0A9B7"/>
<path d="M51.5483 15.9324L54.4461 16.7088L51.0814 29.2659L48.1836 28.4894L51.5483 15.9324Z" stroke="#A0A9B7" stroke-linejoin="round"/>
<path d="M53.9284 18.6406L56.8262 19.4171L54.4968 28.1104L51.5991 27.334L53.9284 18.6406Z" stroke="#A0A9B7" stroke-linejoin="round"/>
<path d="M9.56519 2.61232L52.066 14.0004L47.666 30.4211L5.1652 19.033L9.56519 2.61232Z" stroke="#A0A9B7" stroke-linejoin="round"/>
</svg>
