<svg width="61" height="60" viewBox="0 0 61 60" fill="none" xmlns="http://www.w3.org/2000/svg">
<path d="M0.5 35.5V54.5C0.5 57.2614 2.73858 59.5 5.5 59.5H39.5C42.2614 59.5 44.5 57.2614 44.5 54.5V35.5C44.5 32.7386 42.2614 30.5 39.5 30.5H5.5C2.73858 30.5 0.5 32.7386 0.5 35.5Z" stroke="#A0A9B7" stroke-linecap="round" stroke-linejoin="round"/>
<path d="M11.5 39.5H6.5C5.94772 39.5 5.5 39.9477 5.5 40.5V43.5C5.5 44.0523 5.94772 44.5 6.5 44.5H11.5C12.0523 44.5 12.5 44.0523 12.5 43.5V40.5C12.5 39.9477 12.0523 39.5 11.5 39.5Z" stroke="#A0A9B7" stroke-linecap="round" stroke-linejoin="round"/>
<path d="M5.5 54.5H14.5" stroke="#A0A9B7" stroke-linecap="round" stroke-linejoin="round"/>
<path d="M17.5 54.5H34.5" stroke="#A0A9B7" stroke-linecap="round" stroke-linejoin="round"/>
<path d="M47.1208 44.0062L58.0415 33.0855C59.9941 31.1328 59.9941 27.967 58.0415 26.0144L33.9999 1.97277C32.0472 0.0201457 28.8814 0.0201452 26.9288 1.97277L13.4938 15.4078C11.5411 17.3604 11.5411 20.5262 13.4938 22.4789L18.0211 27.0062" stroke="#A0A9B7" stroke-linecap="round" stroke-linejoin="round"/>
<path d="M32.0966 12.5732L28.5611 9.03767C28.1706 8.64715 27.5374 8.64715 27.1469 9.03767L25.0256 11.159C24.6351 11.5495 24.6351 12.1827 25.0256 12.5732L28.5611 16.1087C28.9516 16.4993 29.5848 16.4993 29.9753 16.1087L32.0966 13.9874C32.4872 13.5969 32.4872 12.9637 32.0966 12.5732Z" stroke="#A0A9B7" stroke-linecap="round" stroke-linejoin="round"/>
<path d="M17.2474 18.9372L23.6114 25.3012" stroke="#A0A9B7" stroke-linecap="round" stroke-linejoin="round"/>
</svg>
