<svg width="60" height="60" viewBox="0 0 60 60" fill="none" xmlns="http://www.w3.org/2000/svg">
<path d="M8.5 49.0263L3 39.5L12.5263 34L15.2583 34.7321L17.8564 33.2321L20.3564 37.5622L8.5 49.0263Z" stroke="#A0A9B7" stroke-linecap="round" stroke-linejoin="round"/>
<path d="M17.8562 33.2321C18.7222 32.7321 20.1543 31.2125 18.9543 29.134L31.0786 22.134L32.4447 22.5001M32.4447 22.5001L45.435 15.0001L48.5331 14.3661L49.5331 16.0981L33.9447 25.0981M32.4447 22.5001L33.9447 25.0981M23.5524 31.0981L33.9447 25.0981" stroke="#A0A9B7" stroke-linecap="round" stroke-linejoin="round"/>
<path d="M20.3562 37.5622L35.9447 28.5622L51.0331 18.6962L49.5331 16.0981" stroke="#A0A9B7" stroke-linecap="round" stroke-linejoin="round"/>
<path d="M49.0332 15.2319L55.0954 11.7319L56.0954 13.464L50.0332 16.964" stroke="#A0A9B7" stroke-linecap="round" stroke-linejoin="round"/>
<path d="M53.3633 12.7321L52.3633 11" stroke="#A0A9B7" stroke-linecap="round" stroke-linejoin="round"/>
<path d="M21.2223 37.0623L23.4902 44.9905L26.9543 42.9905L24.6864 35.0623" stroke="#A0A9B7" stroke-linecap="round" stroke-linejoin="round"/>
<path d="M25.2534 37.0443L28.2845 35.2943L27.7175 33.3123" stroke="#A0A9B7" stroke-linecap="round" stroke-linejoin="round"/>
<path d="M30.7485 31.5623C35.4985 39.7895 43.3107 39.3206 43.3107 39.3206L43.9088 34.3565C43.9088 34.3565 37.8956 34.9414 34.6456 29.3123" stroke="#A0A9B7" stroke-linecap="round" stroke-linejoin="round"/>
</svg>
