<svg width="61" height="60" viewBox="0 0 61 60" fill="none" xmlns="http://www.w3.org/2000/svg">
<path d="M9.5 18.5C9.5 22 9.5 25.4 9.5 27C9.5 29 15 35.5 19 35.5H23C27 35.5 32.5 29 32.5 27C32.5 25 32.5 17 32.5 17" stroke="#A0A9B7" stroke-linecap="round" stroke-linejoin="round"/>
<path d="M33 15C33 15 36 14 36 12.5C36 11 31 4.5 21 4.5C11 4.5 6 11 6 12.5C6 13.4196 7.12744 14.1512 8 14.5798" stroke="#A0A9B7" stroke-linecap="round" stroke-linejoin="round"/>
<path d="M8.5 15V17C9 18 11.5 20.8287 21 20.8287C30.5 20.8287 32 18 32.5 17V15C32.5 13 29.5 12 22.5 12H18.5C11.5 12 8.5 13 8.5 15Z" stroke="#A0A9B7" stroke-linecap="round" stroke-linejoin="round"/>
<path d="M8.5 16.5C10 17 14.6 18 21 18C27.4 18 31.3333 17 32.5 16.5" stroke="#A0A9B7" stroke-linecap="round" stroke-linejoin="round"/>
<circle cx="21" cy="15" r="1.5" stroke="#A0A9B7"/>
<path d="M1.50021 54.5V41.5C1.3488 39.0775 2.71037 38.5806 6.96999 37.0106C7.99048 36.6732 9.05973 36.5 10.1346 36.5L12.7574 36.5C13.5531 36.5 14.3136 36.8144 14.8835 37.3696C16.5902 39.0326 20.2399 42.5 21.0001 42.5C21.9964 42.5 28.1556 36.8111 28.2004 36.7697C28.2018 36.7684 28.2013 36.7688 28.2027 36.7675C28.3877 36.5956 28.6297 36.5 28.8823 36.5H31.8656C32.9404 36.5 34.0097 36.6732 35.0302 37.0106C39.7788 38.5806 40.6514 39.0775 40.5 41.5V54.5" stroke="#A0A9B7" stroke-linecap="round" stroke-linejoin="round"/>
<path d="M10.5 54L10.5 46.5M31.5 54V46.5" stroke="#A0A9B7" stroke-linecap="round" stroke-linejoin="round"/>
<path d="M43.5 50.5H51.5V52.5C51.5 53.6046 52.3954 54.5 53.5 54.5H58.5C59.6046 54.5 60.5 53.6081 60.5 52.5035V40C60.5 36 57 34 57 34H59.5C60.0523 34 60.5 33.5523 60.5 33V31.1623C60.5 31.0548 60.4834 30.9477 60.43 30.8544C60.2145 30.4776 59.4219 29.5 57 29.5C55 29.5 54 30 54 30L51 20C50.1667 19 46 17.5 36 17.5L35.5 17.5" stroke="#A0A9B7" stroke-linecap="round" stroke-linejoin="round"/>
<path d="M58 40.5C58 37.5 56.5 36.5 55.5 36C53.2423 36 51.0126 37.7935 49.5159 39.2493C48.983 39.7676 49.3746 40.5 50.118 40.5H58Z" stroke="#A0A9B7" stroke-linecap="round" stroke-linejoin="round"/>
</svg>
