<svg width="60" height="60" viewBox="0 0 60 60" fill="none" xmlns="http://www.w3.org/2000/svg">
<path d="M15.5 59.5V5.5H49.5L54.5 10.5V59.5H15.5Z" stroke="#A0A9B7" stroke-linecap="round" stroke-linejoin="round"/>
<path d="M49.5 5.5V10.5H54.5" stroke="#A0A9B7" stroke-linecap="round" stroke-linejoin="round"/>
<path d="M20.5 10.5H39.5" stroke="#A0A9B7" stroke-linecap="round" stroke-linejoin="round"/>
<path d="M20.5 13.5H34.5" stroke="#A0A9B7" stroke-linecap="round" stroke-linejoin="round"/>
<path d="M20.5 16.5H37.5" stroke="#A0A9B7" stroke-linecap="round" stroke-linejoin="round"/>
<path d="M28.9394 50.5104C29.8843 49.5654 31.5001 50.2347 31.5001 51.571V52C31.5001 52.8284 32.1716 53.5 33.0001 53.5H37.0001C37.8285 53.5 38.5001 52.8284 38.5001 52V51.5712C38.5001 50.2348 40.1158 49.5656 41.0607 50.5105L41.3639 50.8137C41.9497 51.3995 42.8995 51.3995 43.4852 50.8137L46.3137 47.9853C46.8995 47.3995 46.8995 46.4497 46.3137 45.864L46.0104 45.5607C45.0654 44.6157 45.7347 43 47.071 43H47.5001C48.3285 43 49.0001 42.3284 49.0001 41.5V37.5C49.0001 36.6716 48.3285 36 47.5001 36H47.0711C45.7347 36 45.0655 34.3843 46.0104 33.4393L46.3137 33.136C46.8995 32.5503 46.8995 31.6005 46.3137 31.0147L43.4853 28.1863C42.8995 27.6005 41.9497 27.6005 41.364 28.1863L41.0607 28.4895C40.1158 29.4345 38.5001 28.7652 38.5001 27.4289V27C38.5001 26.1716 37.8285 25.5 37.0001 25.5H33.0001C32.1716 25.5 31.5001 26.1716 31.5001 27V27.429C31.5001 28.7654 29.8843 29.4346 28.9394 28.4897L28.636 28.1863C28.0502 27.6005 27.1005 27.6005 26.5147 28.1863L23.6863 31.0147C23.1005 31.6005 23.1005 32.5503 23.6863 33.136L23.9896 33.4393C24.9345 34.3843 24.2653 36 22.9289 36H22.5001C21.6716 36 21.0001 36.6716 21.0001 37.5V41.5C21.0001 42.3284 21.6716 43 22.5001 43H22.9289C24.2653 43 24.9346 44.6157 23.9896 45.5607L23.6863 45.864C23.1005 46.4498 23.1005 47.3995 23.6863 47.9853L26.5147 50.8137C27.1005 51.3995 28.0503 51.3995 28.636 50.8137L28.9394 50.5104Z" stroke="#A0A9B7" stroke-linecap="round" stroke-linejoin="round"/>
<path d="M40.5 39.5C40.5 42.5376 38.0376 45 35 45C31.9624 45 29.5 42.5376 29.5 39.5C29.5 36.4624 31.9624 34 35 34C38.0376 34 40.5 36.4624 40.5 39.5Z" stroke="#A0A9B7"/>
<path d="M15.5 54.5H5.5V0.5H39.5L44.5 5.5" stroke="#A0A9B7" stroke-linecap="round" stroke-linejoin="round"/>
</svg>
